<?xml version="1.0" encoding="UTF-8" standalone="no"?>
<svg
   version="1.0"
   width="1200pt"
   height="1200pt"
   viewBox="0 0 1200 1200"
   preserveAspectRatio="xMidYMid meet"
   id="svg10"
   sodipodi:docname="cbb479784b6353ff561f3d003ed010ef.svg"
   xmlns:inkscape="http://www.inkscape.org/namespaces/inkscape"
   xmlns:sodipodi="http://sodipodi.sourceforge.net/DTD/sodipodi-0.dtd"
   xmlns="http://www.w3.org/2000/svg"
   xmlns:svg="http://www.w3.org/2000/svg">
  <defs
     id="defs14" />
  <sodipodi:namedview
     id="namedview12"
     pagecolor="#ffffff"
     bordercolor="#666666"
     borderopacity="1.0"
     inkscape:pageshadow="2"
     inkscape:pageopacity="0.0"
     inkscape:pagecheckerboard="0"
     inkscape:document-units="pt" />
  <metadata
     id="metadata2">
Created by potrace 1.16, written by Peter Selinger 2001-2019
</metadata>
  <g
     transform="matrix(0.1,0,0,-0.1,0,1200)"
     fill="#000000"
     stroke="none"
     id="g8">
    <path
       d="M 0,6000 V 0 h 6000 6000 v 6000 6000 H 6000 0 Z m 6850,2586 835,-483 v -978 -979 l -835,-483 c -459,-265 -841,-483 -848,-483 -12,0 -225,121 -717,405 -121,71 -350,203 -510,295 -159,92 -328,190 -375,217 l -85,49 v 979 979 l 345,199 c 190,110 566,327 835,483 270,156 497,283 505,283 8,0 391,-217 850,-483 z m -1568,-4763 3,-398 208,-3 207,-2 v -80 -80 l -307,2 -308,3 -3,465 c -1,256 0,471 3,478 3,8 33,12 100,12 h 95 z m 1178,39 c 0,-413 -2,-429 -75,-510 -59,-65 -125,-94 -231,-100 -99,-5 -174,14 -235,61 -57,43 -99,123 -99,189 v 49 l 97,-3 97,-3 9,-41 c 12,-61 46,-89 112,-89 39,0 59,5 75,20 48,42 50,62 50,428 0,189 3,347 7,350 3,4 48,7 100,7 h 93 z m 445,-122 v -475 l -97,-3 -98,-3 v 481 481 l 98,-3 97,-3 z"
       id="path4" />
    <path
       d="m 5520,8624 c -261,-152 -605,-351 -765,-444 l -290,-167 -3,-886 -2,-886 92,-54 c 51,-30 398,-231 771,-446 l 677,-391 768,444 767,444 3,885 2,886 -92,54 c -51,30 -298,173 -548,317 -250,145 -555,321 -677,391 -122,71 -223,129 -225,128 -1,0 -217,-124 -478,-275 z m 515,-959 v -320 h -35 -35 l -3,310 c -1,170 0,316 3,323 3,8 17,12 37,10 l 33,-3 z m -147,134 -3,-72 -66,-22 c -104,-35 -169,-74 -245,-150 -81,-81 -115,-134 -153,-242 l -27,-78 h -70 -69 l 3,35 c 6,52 56,182 96,248 70,115 185,221 306,282 55,29 177,69 208,70 22,0 23,-3 20,-71 z m 328,50 c 181,-56 334,-174 430,-331 40,-66 90,-196 96,-248 l 3,-35 -71,-3 -71,-3 -12,48 c -24,96 -81,194 -161,273 -80,80 -143,120 -249,155 l -66,22 -3,72 c -3,84 -4,83 104,50 z m -326,-383 c 0,-74 0,-75 -34,-95 -41,-26 -101,-91 -111,-120 -6,-19 -14,-21 -80,-21 -41,0 -76,4 -79,9 -3,5 10,40 29,79 41,81 115,155 197,196 77,38 78,37 78,-48 z m 320,37 c 74,-44 137,-110 175,-185 19,-39 32,-74 29,-79 -3,-5 -36,-9 -74,-9 -65,0 -71,2 -87,28 -25,41 -85,102 -115,118 -27,14 -28,18 -28,90 v 76 l 28,-7 c 15,-3 47,-18 72,-32 z m -138,-302 c 28,-25 33,-36 33,-76 0,-40 -5,-51 -33,-76 -47,-43 -102,-41 -148,5 -26,26 -34,42 -34,71 0,29 8,45 34,71 46,46 101,48 148,5 z m -287,-76 v -30 h -325 c -305,0 -325,1 -328,18 -9,48 -14,47 330,45 l 323,-3 z m 1080,0 v -30 h -325 c -305,0 -325,1 -328,18 -9,48 -14,47 330,45 l 323,-3 z M 5397,7008 c 4,-7 19,-47 33,-88 60,-178 214,-325 399,-380 l 56,-16 3,-72 c 3,-85 4,-84 -104,-51 -185,57 -337,176 -434,339 -52,86 -108,249 -94,271 8,14 132,11 141,-3 z m 348,-9 c 10,-29 82,-107 117,-125 27,-14 28,-17 28,-89 0,-86 -1,-86 -75,-51 -78,36 -159,116 -200,198 -19,39 -32,74 -29,79 3,5 38,9 79,9 67,0 74,-2 80,-21 z m 669,12 c 3,-5 -10,-40 -29,-79 -41,-82 -122,-162 -200,-198 -74,-35 -75,-34 -75,50 0,70 2,75 28,91 42,27 82,67 108,108 24,37 24,37 94,37 38,0 71,-4 74,-9 z m 328,-29 c -5,-54 -48,-167 -90,-239 -97,-165 -250,-285 -436,-342 -108,-33 -107,-34 -104,51 l 3,72 56,16 c 191,57 346,209 406,398 l 26,83 71,-3 71,-3 z m -707,-397 v -320 h -35 -35 l -3,310 c -1,170 0,316 3,323 3,8 17,12 37,10 l 33,-3 z"
       id="path6" />
  </g>
</svg>
