<svg id="svg" xmlns="http://www.w3.org/2000/svg" xmlns:xlink="http://www.w3.org/1999/xlink" width="400" height="400" viewBox="0, 0, 400,400" version="1.1"><g id="svgg"><path id="path0" d="M184.464 106.271 C 176.011 111.164,163.375 118.467,156.385 122.500 L 143.675 129.833 143.675 162.500 L 143.675 195.167 154.754 201.552 C 160.848 205.064,173.519 212.378,182.912 217.805 L 199.991 227.674 228.154 211.420 L 256.317 195.167 256.318 162.500 L 256.318 129.833 228.309 113.667 C 212.904 104.775,200.195 97.472,200.067 97.438 C 199.938 97.403,192.917 101.378,184.464 106.271 M208.140 108.123 C 234.168 123.200,244.244 129.021,247.408 130.811 L 250.982 132.833 250.978 162.500 L 250.973 192.167 225.641 206.786 C 210.599 215.466,200.077 221.344,199.738 221.255 C 199.424 221.173,191.967 216.942,183.167 211.854 C 174.367 206.765,163.086 200.254,158.097 197.384 L 149.028 192.167 149.025 162.500 L 149.021 132.833 158.586 127.333 C 163.847 124.308,175.205 117.750,183.826 112.758 C 192.447 107.767,199.713 103.679,199.973 103.675 C 200.233 103.670,203.908 105.672,208.140 108.123 M198.667 144.500 L 198.667 155.333 200.000 155.333 L 201.333 155.333 201.333 144.500 L 201.333 133.667 200.000 133.667 L 198.667 133.667 198.667 144.500 M195.667 137.601 C 186.893 138.667,178.223 146.523,175.676 155.714 C 174.720 159.165,174.629 159.000,177.476 159.000 L 179.953 159.000 180.506 157.083 C 182.371 150.627,187.488 145.292,193.683 143.346 C 196.841 142.354,196.715 142.508,196.599 139.801 C 196.503 137.564,196.477 137.503,195.667 137.601 M203.463 137.810 C 203.373 138.045,203.344 139.185,203.400 140.343 L 203.500 142.449 205.892 143.178 C 212.473 145.184,217.538 150.367,219.494 157.098 L 220.047 159.000 222.524 159.000 C 225.371 159.000,225.280 159.165,224.324 155.714 C 221.894 146.946,214.562 139.934,205.649 137.855 C 204.018 137.475,203.595 137.466,203.463 137.810 M193.814 149.496 C 190.246 151.222,186.000 156.144,186.000 158.553 C 186.000 159.470,191.158 159.151,191.587 158.208 C 192.189 156.888,194.027 155.000,195.385 154.307 L 196.667 153.653 196.667 151.180 C 196.667 148.129,196.655 148.122,193.814 149.496 M203.333 151.008 L 203.333 153.653 204.663 154.331 C 205.885 154.955,208.667 157.988,208.667 158.697 C 208.667 158.863,209.867 159.000,211.333 159.000 C 214.382 159.000,214.382 159.001,213.175 156.409 C 211.686 153.209,208.182 150.074,204.739 148.859 L 203.333 148.363 203.333 151.008 M198.438 159.155 C 195.460 160.450,195.795 165.079,198.936 166.020 C 200.035 166.350,200.429 166.319,201.467 165.827 C 205.898 163.724,202.936 157.198,198.438 159.155 M171.000 162.500 L 171.000 163.667 182.000 163.667 L 193.000 163.667 193.000 162.500 L 193.000 161.333 182.000 161.333 L 171.000 161.333 171.000 162.500 M207.000 162.500 L 207.000 163.667 218.000 163.667 L 229.000 163.667 229.000 162.500 L 229.000 161.333 218.000 161.333 L 207.000 161.333 207.000 162.500 M175.000 166.409 C 175.000 174.793,186.312 186.370,195.500 187.389 L 196.500 187.500 196.500 185.051 L 196.500 182.601 193.930 181.791 C 187.591 179.792,182.131 174.147,180.550 167.959 L 180.093 166.167 177.546 166.069 C 175.618 165.996,175.000 166.078,175.000 166.409 M186.000 166.447 C 186.000 168.677,189.988 173.524,193.256 175.265 C 196.406 176.944,196.667 176.836,196.667 173.840 L 196.667 171.347 195.385 170.693 C 194.027 170.000,192.189 168.112,191.587 166.792 C 191.158 165.849,186.000 165.530,186.000 166.447 M207.833 167.601 C 207.265 168.491,206.078 169.663,205.083 170.318 L 203.333 171.468 203.333 173.881 C 203.333 176.836,203.391 176.875,205.965 175.657 C 208.687 174.370,211.721 171.454,212.999 168.897 C 214.441 166.010,214.434 165.997,211.417 166.018 L 208.833 166.036 207.833 167.601 M219.418 168.126 C 217.439 174.611,212.364 179.806,206.070 181.791 L 203.500 182.601 203.500 185.051 L 203.500 187.500 204.500 187.389 C 213.063 186.439,222.071 178.041,224.474 168.766 C 225.222 165.879,225.307 166.000,222.534 166.000 L 220.067 166.000 219.418 168.126 M198.667 180.500 L 198.667 191.333 200.000 191.333 L 201.333 191.333 201.333 180.500 L 201.333 169.667 200.000 169.667 L 198.667 169.667 198.667 180.500 " stroke="none" fill="#000000" fill-rule="evenodd"></path><path id="path1" d="M184.464 106.271 C 176.011 111.164,163.375 118.467,156.385 122.500 L 143.675 129.833 143.675 162.500 L 143.675 195.167 154.754 201.552 C 160.848 205.064,173.519 212.378,182.912 217.805 L 199.991 227.674 228.154 211.420 L 256.317 195.167 256.318 162.500 L 256.318 129.833 228.309 113.667 C 212.904 104.775,200.195 97.472,200.067 97.438 C 199.938 97.403,192.917 101.378,184.464 106.271 M208.140 108.123 C 234.168 123.200,244.244 129.021,247.408 130.811 L 250.982 132.833 250.978 162.500 L 250.973 192.167 225.641 206.786 C 210.599 215.466,200.077 221.344,199.738 221.255 C 199.424 221.173,191.967 216.942,183.167 211.854 C 174.367 206.765,163.086 200.254,158.097 197.384 L 149.028 192.167 149.025 162.500 L 149.021 132.833 158.586 127.333 C 163.847 124.308,175.205 117.750,183.826 112.758 C 192.447 107.767,199.713 103.679,199.973 103.675 C 200.233 103.670,203.908 105.672,208.140 108.123 M198.667 144.500 L 198.667 155.333 200.000 155.333 L 201.333 155.333 201.333 144.500 L 201.333 133.667 200.000 133.667 L 198.667 133.667 198.667 144.500 M195.667 137.601 C 186.893 138.667,178.223 146.523,175.676 155.714 C 174.720 159.165,174.629 159.000,177.476 159.000 L 179.953 159.000 180.506 157.083 C 182.371 150.627,187.488 145.292,193.683 143.346 C 196.841 142.354,196.715 142.508,196.599 139.801 C 196.503 137.564,196.477 137.503,195.667 137.601 M203.463 137.810 C 203.373 138.045,203.344 139.185,203.400 140.343 L 203.500 142.449 205.892 143.178 C 212.473 145.184,217.538 150.367,219.494 157.098 L 220.047 159.000 222.524 159.000 C 225.371 159.000,225.280 159.165,224.324 155.714 C 221.894 146.946,214.562 139.934,205.649 137.855 C 204.018 137.475,203.595 137.466,203.463 137.810 M193.814 149.496 C 190.246 151.222,186.000 156.144,186.000 158.553 C 186.000 159.470,191.158 159.151,191.587 158.208 C 192.189 156.888,194.027 155.000,195.385 154.307 L 196.667 153.653 196.667 151.180 C 196.667 148.129,196.655 148.122,193.814 149.496 M203.333 151.008 L 203.333 153.653 204.663 154.331 C 205.885 154.955,208.667 157.988,208.667 158.697 C 208.667 158.863,209.867 159.000,211.333 159.000 C 214.382 159.000,214.382 159.001,213.175 156.409 C 211.686 153.209,208.182 150.074,204.739 148.859 L 203.333 148.363 203.333 151.008 M198.438 159.155 C 195.460 160.450,195.795 165.079,198.936 166.020 C 200.035 166.350,200.429 166.319,201.467 165.827 C 205.898 163.724,202.936 157.198,198.438 159.155 M171.000 162.500 L 171.000 163.667 182.000 163.667 L 193.000 163.667 193.000 162.500 L 193.000 161.333 182.000 161.333 L 171.000 161.333 171.000 162.500 M207.000 162.500 L 207.000 163.667 218.000 163.667 L 229.000 163.667 229.000 162.500 L 229.000 161.333 218.000 161.333 L 207.000 161.333 207.000 162.500 M175.000 166.409 C 175.000 174.793,186.312 186.370,195.500 187.389 L 196.500 187.500 196.500 185.051 L 196.500 182.601 193.930 181.791 C 187.591 179.792,182.131 174.147,180.550 167.959 L 180.093 166.167 177.546 166.069 C 175.618 165.996,175.000 166.078,175.000 166.409 M186.000 166.447 C 186.000 168.677,189.988 173.524,193.256 175.265 C 196.406 176.944,196.667 176.836,196.667 173.840 L 196.667 171.347 195.385 170.693 C 194.027 170.000,192.189 168.112,191.587 166.792 C 191.158 165.849,186.000 165.530,186.000 166.447 M207.833 167.601 C 207.265 168.491,206.078 169.663,205.083 170.318 L 203.333 171.468 203.333 173.881 C 203.333 176.836,203.391 176.875,205.965 175.657 C 208.687 174.370,211.721 171.454,212.999 168.897 C 214.441 166.010,214.434 165.997,211.417 166.018 L 208.833 166.036 207.833 167.601 M219.418 168.126 C 217.439 174.611,212.364 179.806,206.070 181.791 L 203.500 182.601 203.500 185.051 L 203.500 187.500 204.500 187.389 C 213.063 186.439,222.071 178.041,224.474 168.766 C 225.222 165.879,225.307 166.000,222.534 166.000 L 220.067 166.000 219.418 168.126 M198.667 180.500 L 198.667 191.333 200.000 191.333 L 201.333 191.333 201.333 180.500 L 201.333 169.667 200.000 169.667 L 198.667 169.667 198.667 180.500 " stroke="none" fill="#000000" fill-rule="evenodd"></path></g></svg>