<svg width="150" height="150" xmlns="http://www.w3.org/2000/svg" version="1.1">

 <g>
  <title>Layer 1</title>
  <g id="svgg">
   <path fill-rule="evenodd" fill="#000000" d="m60.464,19.271c-8.453,4.893 -21.089,12.196 -28.079,16.229l-12.71,7.333l0,32.667l0,32.667l11.079,6.385c6.094,3.512 18.765,10.826 28.158,16.253l17.079,9.869l28.163,-16.254l28.163,-16.253l0.001,-32.667l0,-32.667l-28.009,-16.166c-15.405,-8.892 -28.114,-16.195 -28.242,-16.229c-0.129,-0.035 -7.15,3.94 -15.603,8.833m23.676,1.852c26.028,15.077 36.104,20.898 39.268,22.688l3.574,2.022l-0.004,29.667l-0.005,29.667l-25.332,14.619c-15.042,8.68 -25.564,14.558 -25.903,14.469c-0.314,-0.082 -7.771,-4.313 -16.571,-9.401c-8.8,-5.089 -20.081,-11.6 -25.07,-14.47l-9.069,-5.217l-0.003,-29.667l-0.004,-29.667l9.565,-5.5c5.261,-3.025 16.619,-9.583 25.24,-14.575c8.621,-4.991 15.887,-9.079 16.147,-9.083c0.26,-0.005 3.935,1.997 8.167,4.448m-9.473,36.377l0,10.833l1.333,0l1.333,0l0,-10.833l0,-10.833l-1.333,0l-1.333,0l0,10.833m-3,-6.899c-8.774,1.066 -17.444,8.922 -19.991,18.113c-0.956,3.451 -1.047,3.286 1.8,3.286l2.477,0l0.553,-1.917c1.865,-6.456 6.982,-11.791 13.177,-13.737c3.158,-0.992 3.032,-0.838 2.916,-3.545c-0.096,-2.237 -0.122,-2.298 -0.932,-2.2m7.796,0.209c-0.09,0.235 -0.119,1.375 -0.063,2.533l0.1,2.106l2.392,0.729c6.581,2.006 11.646,7.189 13.602,13.92l0.553,1.902l2.477,0c2.847,0 2.756,0.165 1.8,-3.286c-2.43,-8.768 -9.762,-15.78 -18.675,-17.859c-1.631,-0.38 -2.054,-0.389 -2.186,-0.045m-9.649,11.686c-3.568,1.726 -7.814,6.648 -7.814,9.057c0,0.917 5.158,0.598 5.587,-0.345c0.602,-1.32 2.44,-3.208 3.798,-3.901l1.282,-0.654l0,-2.473c0,-3.051 -0.012,-3.058 -2.853,-1.684m9.519,1.512l0,2.645l1.33,0.678c1.222,0.624 4.004,3.657 4.004,4.366c0,0.166 1.2,0.303 2.666,0.303c3.049,0 3.049,0.001 1.842,-2.591c-1.489,-3.2 -4.993,-6.335 -8.436,-7.55l-1.406,-0.496l0,2.645m-4.895,8.147c-2.978,1.295 -2.643,5.924 0.498,6.865c1.099,0.33 1.493,0.299 2.531,-0.193c4.431,-2.103 1.469,-8.629 -3.029,-6.672m-27.438,3.345l0,1.167l11,0l11,0l0,-1.167l0,-1.167l-11,0l-11,0l0,1.167m36,0l0,1.167l11,0l11,0l0,-1.167l0,-1.167l-11,0l-11,0l0,1.167m-32,3.909c0,8.384 11.312,19.961 20.5,20.98l1,0.111l0,-2.449l0,-2.45l-2.57,-0.81c-6.339,-1.999 -11.799,-7.644 -13.38,-13.832l-0.457,-1.792l-2.547,-0.098c-1.928,-0.073 -2.546,0.009 -2.546,0.34m11,0.038c0,2.23 3.988,7.077 7.256,8.818c3.15,1.679 3.411,1.571 3.411,-1.425l0,-2.493l-1.282,-0.654c-1.358,-0.693 -3.196,-2.581 -3.798,-3.901c-0.429,-0.943 -5.587,-1.262 -5.587,-0.345m21.833,1.154c-0.568,0.89 -1.755,2.062 -2.75,2.717l-1.75,1.15l0,2.413c0,2.955 0.058,2.994 2.632,1.776c2.722,-1.287 5.756,-4.203 7.034,-6.76c1.442,-2.887 1.435,-2.9 -1.582,-2.879l-2.584,0.018l-1,1.565m11.585,0.525c-1.979,6.485 -7.054,11.68 -13.348,13.665l-2.57,0.81l0,2.45l0,2.449l1,-0.111c8.563,-0.95 17.571,-9.348 19.974,-18.623c0.748,-2.887 0.833,-2.766 -1.94,-2.766l-2.467,0l-0.649,2.126m-20.751,12.374l0,10.833l1.333,0l1.333,0l0,-10.833l0,-10.833l-1.333,0l-1.333,0l0,10.833" id="path0"/>
   <path fill-rule="evenodd" fill="#000000" d="m60.464,19.271c-8.453,4.893 -21.089,12.196 -28.079,16.229l-12.71,7.333l0,32.667l0,32.667l11.079,6.385c6.094,3.512 18.765,10.826 28.158,16.253l17.079,9.869l28.163,-16.254l28.163,-16.253l0.001,-32.667l0,-32.667l-28.009,-16.166c-15.405,-8.892 -28.114,-16.195 -28.242,-16.229c-0.129,-0.035 -7.15,3.94 -15.603,8.833m23.676,1.852c26.028,15.077 36.104,20.898 39.268,22.688l3.574,2.022l-0.004,29.667l-0.005,29.667l-25.332,14.619c-15.042,8.68 -25.564,14.558 -25.903,14.469c-0.314,-0.082 -7.771,-4.313 -16.571,-9.401c-8.8,-5.089 -20.081,-11.6 -25.07,-14.47l-9.069,-5.217l-0.003,-29.667l-0.004,-29.667l9.565,-5.5c5.261,-3.025 16.619,-9.583 25.24,-14.575c8.621,-4.991 15.887,-9.079 16.147,-9.083c0.26,-0.005 3.935,1.997 8.167,4.448m-9.473,36.377l0,10.833l1.333,0l1.333,0l0,-10.833l0,-10.833l-1.333,0l-1.333,0l0,10.833m-3,-6.899c-8.774,1.066 -17.444,8.922 -19.991,18.113c-0.956,3.451 -1.047,3.286 1.8,3.286l2.477,0l0.553,-1.917c1.865,-6.456 6.982,-11.791 13.177,-13.737c3.158,-0.992 3.032,-0.838 2.916,-3.545c-0.096,-2.237 -0.122,-2.298 -0.932,-2.2m7.796,0.209c-0.09,0.235 -0.119,1.375 -0.063,2.533l0.1,2.106l2.392,0.729c6.581,2.006 11.646,7.189 13.602,13.92l0.553,1.902l2.477,0c2.847,0 2.756,0.165 1.8,-3.286c-2.43,-8.768 -9.762,-15.78 -18.675,-17.859c-1.631,-0.38 -2.054,-0.389 -2.186,-0.045m-9.649,11.686c-3.568,1.726 -7.814,6.648 -7.814,9.057c0,0.917 5.158,0.598 5.587,-0.345c0.602,-1.32 2.44,-3.208 3.798,-3.901l1.282,-0.654l0,-2.473c0,-3.051 -0.012,-3.058 -2.853,-1.684m9.519,1.512l0,2.645l1.33,0.678c1.222,0.624 4.004,3.657 4.004,4.366c0,0.166 1.2,0.303 2.666,0.303c3.049,0 3.049,0.001 1.842,-2.591c-1.489,-3.2 -4.993,-6.335 -8.436,-7.55l-1.406,-0.496l0,2.645m-4.895,8.147c-2.978,1.295 -2.643,5.924 0.498,6.865c1.099,0.33 1.493,0.299 2.531,-0.193c4.431,-2.103 1.469,-8.629 -3.029,-6.672m-27.438,3.345l0,1.167l11,0l11,0l0,-1.167l0,-1.167l-11,0l-11,0l0,1.167m36,0l0,1.167l11,0l11,0l0,-1.167l0,-1.167l-11,0l-11,0l0,1.167m-32,3.909c0,8.384 11.312,19.961 20.5,20.98l1,0.111l0,-2.449l0,-2.45l-2.57,-0.81c-6.339,-1.999 -11.799,-7.644 -13.38,-13.832l-0.457,-1.792l-2.547,-0.098c-1.928,-0.073 -2.546,0.009 -2.546,0.34m11,0.038c0,2.23 3.988,7.077 7.256,8.818c3.15,1.679 3.411,1.571 3.411,-1.425l0,-2.493l-1.282,-0.654c-1.358,-0.693 -3.196,-2.581 -3.798,-3.901c-0.429,-0.943 -5.587,-1.262 -5.587,-0.345m21.833,1.154c-0.568,0.89 -1.755,2.062 -2.75,2.717l-1.75,1.15l0,2.413c0,2.955 0.058,2.994 2.632,1.776c2.722,-1.287 5.756,-4.203 7.034,-6.76c1.442,-2.887 1.435,-2.9 -1.582,-2.879l-2.584,0.018l-1,1.565m11.585,0.525c-1.979,6.485 -7.054,11.68 -13.348,13.665l-2.57,0.81l0,2.45l0,2.449l1,-0.111c8.563,-0.95 17.571,-9.348 19.974,-18.623c0.748,-2.887 0.833,-2.766 -1.94,-2.766l-2.467,0l-0.649,2.126m-20.751,12.374l0,10.833l1.333,0l1.333,0l0,-10.833l0,-10.833l-1.333,0l-1.333,0l0,10.833" id="path1"/>
  </g>
 </g>
</svg>